<svg width="1200" height="430" viewBox="0 0 1200 430"
     xmlns="http://www.w3.org/2000/svg">

  <defs>

    <!-- ============ FABRIC — cylindrical cross-section shading ============ -->
    <linearGradient id="fabricBack" x1="0" y1="0" x2="0" y2="1">
      <stop offset="0%"  stop-color="#d9d9d6"/>
      <stop offset="35%" stop-color="#bfbfba"/>
      <stop offset="70%" stop-color="#9d9d97"/>
      <stop offset="100%" stop-color="#828279"/>
    </linearGradient>

    <linearGradient id="fabricFront" x1="0" y1="0" x2="0" y2="1">
      <stop offset="0%"   stop-color="#c9c9c3"/>
      <stop offset="18%"  stop-color="#e2e2dc"/>
      <stop offset="42%"  stop-color="#cbcbc5"/>
      <stop offset="68%"  stop-color="#a3a39c"/>
      <stop offset="88%"  stop-color="#84847c"/>
      <stop offset="100%" stop-color="#6c6c64"/>
    </linearGradient>

    <linearGradient id="fabricSheen" x1="0" y1="0" x2="1" y2="0">
      <stop offset="0%"   stop-color="#ffffff" stop-opacity="0"/>
      <stop offset="20%"  stop-color="#ffffff" stop-opacity=".55"/>
      <stop offset="50%"  stop-color="#ffffff" stop-opacity=".85"/>
      <stop offset="80%"  stop-color="#ffffff" stop-opacity=".45"/>
      <stop offset="100%" stop-color="#ffffff" stop-opacity="0"/>
    </linearGradient>

    <radialGradient id="aoLeft" cx="50%" cy="50%" r="50%">
      <stop offset="0%"  stop-color="#000000" stop-opacity=".55"/>
      <stop offset="70%" stop-color="#000000" stop-opacity=".18"/>
      <stop offset="100%" stop-color="#000000" stop-opacity="0"/>
    </radialGradient>

    <!-- ============ METAL — brushed buckle ============ -->
    <linearGradient id="metal" x1="0" y1="0" x2="0" y2="1">
      <stop offset="0%"   stop-color="#fbfbfa"/>
      <stop offset="12%"  stop-color="#dcdcdb"/>
      <stop offset="30%"  stop-color="#b3b4b3"/>
      <stop offset="48%"  stop-color="#88898a"/>
      <stop offset="62%"  stop-color="#a2a3a3"/>
      <stop offset="80%"  stop-color="#6c6d6e"/>
      <stop offset="100%" stop-color="#414243"/>
    </linearGradient>

    <linearGradient id="metalInner" x1="0" y1="0" x2="0" y2="1">
      <stop offset="0%"   stop-color="#050505"/>
      <stop offset="45%"  stop-color="#141414"/>
      <stop offset="100%" stop-color="#020202"/>
    </linearGradient>

    <linearGradient id="metalInnerSheen" x1="0" y1="0" x2="1" y2="1">
      <stop offset="0%"   stop-color="#ffffff" stop-opacity=".25"/>
      <stop offset="35%"  stop-color="#ffffff" stop-opacity="0"/>
      <stop offset="100%" stop-color="#ffffff" stop-opacity="0"/>
    </linearGradient>

    <radialGradient id="buckleGlow" cx="35%" cy="20%" r="75%">
      <stop offset="0%"  stop-color="#ffffff" stop-opacity=".9"/>
      <stop offset="25%" stop-color="#ffffff" stop-opacity=".25"/>
      <stop offset="60%" stop-color="#ffffff" stop-opacity="0"/>
    </radialGradient>

    <!-- ============ FILTERS ============ -->
    <filter id="weave" x="-5%" y="-20%" width="110%" height="140%">
      <feTurbulence type="fractalNoise" baseFrequency="0.9 0.06" numOctaves="2" seed="11" result="n"/>
      <feColorMatrix in="n" type="matrix"
        values="0 0 0 0 0
                0 0 0 0 0
                0 0 0 0 0
                0 0 0 0.05 0" result="softN"/>
      <feComposite in="softN" in2="SourceGraphic" operator="in" result="grain"/>
      <feBlend in="SourceGraphic" in2="grain" mode="multiply"/>
    </filter>

    <filter id="softBlur6"><feGaussianBlur stdDeviation="6"/></filter>
    <filter id="softBlur10"><feGaussianBlur stdDeviation="10"/></filter>

    <filter id="groundShadow" x="-30%" y="-60%" width="160%" height="220%">
      <feGaussianBlur stdDeviation="16"/>
    </filter>

    <filter id="buckleShadow" x="-40%" y="-40%" width="180%" height="180%">
      <feGaussianBlur stdDeviation="6"/>
    </filter>

  </defs>


  <!-- ============ GROUND CONTACT SHADOW ============ -->
  <ellipse cx="600" cy="345" rx="520" ry="46" fill="#000" opacity=".5" filter="url(#groundShadow)"/>
  <ellipse cx="600" cy="352" rx="360" ry="26" fill="#000" opacity=".38" filter="url(#softBlur10)"/>


  <!-- ============ BACK / UPPER LOOP ============ -->
  <path
    d="M82 150
       C125 72 325 35 600 35
       C875 35 1075 72 1118 150
       C1140 165 1140 185 1087 198
       C1035 130 850 105 600 105
       C350 105 165 130 113 198
       C55 185 55 165 82 150
       Z"
    fill="url(#fabricBack)"
    stroke="#c9c9c4"
    stroke-width="1.5"
    filter="url(#weave)"
  />
  <ellipse cx="100" cy="175" rx="42" ry="55" fill="url(#aoLeft)"/>
  <ellipse cx="1100" cy="175" rx="42" ry="55" fill="url(#aoLeft)"/>


  <!-- ============ MAIN FRONT BAND ============ -->
  <path
    d="M82 150
       C155 205 325 235 600 235
       C875 235 1045 205 1118 150
       C1158 178 1158 258 1087 285
       C1000 330 825 350 600 350
       C375 350 200 330 113 285
       C42 258 42 178 82 150
       Z"
    fill="url(#fabricFront)"
    stroke="#c3c3bd"
    stroke-width="1.5"
    filter="url(#weave)"
  />

  <path
    d="M102 176
       C190 222 350 248 600 248
       C850 248 1010 222 1098 176"
    fill="none"
    stroke="url(#fabricSheen)"
    stroke-width="14"
    opacity=".8"
  />

  <path
    d="M118 258
       C230 296 400 315 600 315
       C800 315 970 296 1082 258"
    fill="none"
    stroke="#5c5c56"
    stroke-width="10"
    opacity=".35"
    filter="url(#softBlur6)"
  />

  <path
    d="M113 285
       C210 327 385 345 600 345
       C815 345 990 327 1087 285"
    fill="none"
    stroke="#d8d8d2"
    stroke-width="2.5"
    opacity=".5"
  />

  <ellipse cx="100" cy="205" rx="30" ry="60" fill="url(#aoLeft)" opacity=".7"/>
  <ellipse cx="1100" cy="205" rx="30" ry="60" fill="url(#aoLeft)" opacity=".7"/>


  <!-- stitching removed -->


  <!-- ============ BUCKLE ============ -->
  <g filter="url(#buckleShadow)">
    <rect x="478" y="203" width="244" height="129" rx="26" fill="#000" opacity=".35"/>
  </g>

  <g>
    <rect x="480" y="205" width="240" height="125" rx="25"
          fill="url(#metal)" stroke="#25262a" stroke-width="3"/>
    <rect x="480" y="205" width="240" height="125" rx="25"
          fill="none" stroke="#fdfdfd" stroke-width="1" opacity=".5"/>

    <g opacity=".25" stroke="#5a5b5c" stroke-width="1">
      <line x1="492" y1="214" x2="708" y2="214"/>
      <line x1="490" y1="223" x2="710" y2="223"/>
      <line x1="488" y1="233" x2="712" y2="233"/>
    </g>

    <rect x="480" y="205" width="240" height="125" rx="25" fill="url(#buckleGlow)" opacity=".55"/>

    <rect x="505" y="228" width="190" height="79" rx="12"
          fill="url(#metalInner)" stroke="#000" stroke-width="2"/>
    <rect x="505" y="228" width="190" height="79" rx="12"
          fill="none" stroke="#3a3a3c" stroke-width="1" opacity=".6"/>
    <rect x="507" y="230" width="186" height="30" rx="9" fill="url(#metalInnerSheen)"/>

    <path d="M505 250 Q505 228 528 228 H670"
          fill="none" stroke="#ffffff" stroke-width="3" opacity=".4" stroke-linecap="round"/>

    <!-- HG logo, engraved/embossed into the metal -->
    <text x="600" y="280" text-anchor="middle"
          font-family="Arial, Helvetica, sans-serif" font-weight="700" font-size="36"
          fill="#000000" opacity=".55">HG</text>
    <text x="600" y="277" text-anchor="middle"
          font-family="Arial, Helvetica, sans-serif" font-weight="700" font-size="36"
          fill="url(#metal)" stroke="#0c0c0c" stroke-width="0.6">HG</text>
    <text x="599" y="276" text-anchor="middle"
          font-family="Arial, Helvetica, sans-serif" font-weight="700" font-size="36"
          fill="#ffffff" opacity=".2">HG</text>
  </g>


  <!-- ============ BELT HOLES (with depth) ============ -->
  <g>
    <circle cx="760" cy="285" r="5.5" fill="#2a2a27"/>
    <circle cx="760" cy="284" r="5.5" fill="none" stroke="#f5f5f2" stroke-width=".8" opacity=".5"/>
    <circle cx="790" cy="281" r="5.5" fill="#2a2a27"/>
    <circle cx="790" cy="280" r="5.5" fill="none" stroke="#f5f5f2" stroke-width=".8" opacity=".5"/>
    <circle cx="820" cy="276" r="5.5" fill="#2a2a27"/>
    <circle cx="820" cy="275" r="5.5" fill="none" stroke="#f5f5f2" stroke-width=".8" opacity=".5"/>
    <circle cx="850" cy="270" r="5.5" fill="#2a2a27"/>
    <circle cx="850" cy="269" r="5.5" fill="none" stroke="#f5f5f2" stroke-width=".8" opacity=".5"/>
    <circle cx="880" cy="264" r="5.5" fill="#2a2a27"/>
    <circle cx="880" cy="263" r="5.5" fill="none" stroke="#f5f5f2" stroke-width=".8" opacity=".5"/>
  </g>

</svg>
